<svg xmlns="http://www.w3.org/2000/svg" viewBox="0 0 32 32" width="32" height="32">
  <defs>
    <radialGradient id="deathStarGradient" cx="0.3" cy="0.3" r="0.8">
      <stop offset="0%" style="stop-color:#E0E0E0;stop-opacity:1" />
      <stop offset="50%" style="stop-color:#A0A0A0;stop-opacity:1" />
      <stop offset="100%" style="stop-color:#404040;stop-opacity:1" />
    </radialGradient>
    <radialGradient id="superlaser" cx="0.5" cy="0.5" r="0.6">
      <stop offset="0%" style="stop-color:#FF6B6B;stop-opacity:1" />
      <stop offset="50%" style="stop-color:#FF4444;stop-opacity:1" />
      <stop offset="100%" style="stop-color:#CC2222;stop-opacity:1" />
    </radialGradient>
  </defs>
  
  <!-- Death Star main sphere -->
  <circle cx="16" cy="16" r="15" fill="url(#deathStarGradient)" stroke="#333" stroke-width="0.5"/>
  
  <!-- Surface details -->
  <g opacity="0.3">
    <!-- Horizontal lines -->
    <line x1="2" y1="8" x2="30" y2="8" stroke="#666" stroke-width="0.3"/>
    <line x1="2" y1="12" x2="30" y2="12" stroke="#666" stroke-width="0.2"/>
    <line x1="2" y1="20" x2="30" y2="20" stroke="#666" stroke-width="0.3"/>
    <line x1="2" y1="24" x2="30" y2="24" stroke="#666" stroke-width="0.2"/>
    
    <!-- Vertical lines -->
    <line x1="8" y1="2" x2="8" y2="30" stroke="#666" stroke-width="0.2"/>
    <line x1="12" y1="2" x2="12" y2="30" stroke="#666" stroke-width="0.3"/>
    <line x1="20" y1="2" x2="20" y2="30" stroke="#666" stroke-width="0.2"/>
    <line x1="24" y1="2" x2="24" y2="30" stroke="#666" stroke-width="0.3"/>
  </g>
  
  <!-- Superlaser dish -->
  <circle cx="22" cy="10" r="4" fill="url(#superlaser)" stroke="#990000" stroke-width="0.5"/>
  <circle cx="22" cy="10" r="2.5" fill="#FF8888" opacity="0.6"/>
  <circle cx="22" cy="10" r="1" fill="#FFAAAA"/>
  
  <!-- Additional surface details -->
  <g opacity="0.4">
    <rect x="4" y="6" width="2" height="1" fill="#888"/>
    <rect x="7" y="9" width="1.5" height="0.8" fill="#888"/>
    <rect x="26" y="14" width="2" height="1.2" fill="#888"/>
    <rect x="3" y="22" width="1.8" height="0.9" fill="#888"/>
    <rect x="14" y="26" width="2.2" height="1" fill="#888"/>
  </g>
  
  <!-- Highlight for 3D effect -->
  <ellipse cx="12" cy="8" rx="6" ry="3" fill="#FFFFFF" opacity="0.15"/>
</svg>
